<svg width="187" height="132" viewBox="0 0 187 132" fill="none" xmlns="http://www.w3.org/2000/svg">
<circle cx="94" cy="66" r="66" fill="url(#paint0_radial_113_215)" fill-opacity="0.8"/>
<path d="M10.7969 21.125C12.6406 21.125 14.1562 21.3906 15.3438 21.9219C16.5625 22.4531 17.625 23.0156 18.5312 23.6094V27.9688C17.6562 27.3125 16.5938 26.7031 15.3438 26.1406C14.0938 25.5469 12.7344 25.25 11.2656 25.25C10.3281 25.25 9.34375 25.4219 8.3125 25.7656C7.3125 26.0781 6.46875 26.5938 5.78125 27.3125C5.09375 28.0312 4.75 28.9531 4.75 30.0781C4.75 31.3281 5.20312 32.2812 6.10938 32.9375C7.01562 33.5938 8.10938 34.2188 9.39062 34.8125L13.7031 36.7812C15.8594 37.75 17.4844 38.8281 18.5781 40.0156C19.6719 41.2031 20.2188 42.7812 20.2188 44.75C20.2188 46.4688 19.7188 47.9844 18.7188 49.2969C17.7188 50.5781 16.4062 51.5938 14.7812 52.3438C13.1562 53.0938 11.375 53.4688 9.4375 53.4688C7.625 53.4688 5.95312 53.1562 4.42188 52.5312C2.89062 51.9062 1.5625 51.2031 0.4375 50.4219V46.0625C1.65625 46.9062 3.04688 47.6719 4.60938 48.3594C6.20312 49.0156 8 49.3438 10 49.3438C11.5625 49.3438 12.9375 48.9531 14.125 48.1719C15.3125 47.3906 15.9062 46.3125 15.9062 44.9375C15.9062 44.1562 15.6562 43.4844 15.1562 42.9219C14.6875 42.3594 14.1094 41.875 13.4219 41.4688C12.7344 41.0625 12.0625 40.7188 11.4062 40.4375L6.20312 38.0938C3.95312 37.0938 2.42188 35.9219 1.60938 34.5781C0.796875 33.2344 0.390625 31.6875 0.390625 29.9375C0.390625 28.2812 0.859375 26.7969 1.79688 25.4844C2.76562 24.1406 4.04688 23.0781 5.64062 22.2969C7.23438 21.5156 8.95312 21.125 10.7969 21.125ZM39.8125 21.5938L54.4844 53H49.4219L46.1406 45.5H31.4219L28.0938 53H23.0312L37.7031 21.5938H39.8125ZM38.8281 28.7188L33.1562 41.5156H44.4062L38.8281 28.7188ZM89.3125 21.5938V53H85.0938V30.2656L75.3906 40.625H74.2656L64.3281 30.2656V53H60.1094V21.5938H61.4219L74.8281 35.9844L88 21.5938H89.3125ZM125.031 21.5V40.5781C125.031 43.2969 124.453 45.6406 123.297 47.6094C122.172 49.5469 120.641 51.0312 118.703 52.0625C116.766 53.0938 114.562 53.6094 112.094 53.6094C109.656 53.6094 107.453 53.0938 105.484 52.0625C103.547 51.0312 102 49.5469 100.844 47.6094C99.7188 45.6406 99.1562 43.2969 99.1562 40.5781V21.5H103.375V40.4375C103.375 42.5625 103.766 44.2812 104.547 45.5938C105.359 46.9062 106.422 47.8594 107.734 48.4531C109.078 49.0156 110.531 49.2969 112.094 49.2969C113.656 49.2656 115.094 48.9688 116.406 48.4062C117.75 47.8125 118.812 46.875 119.594 45.5938C120.406 44.2812 120.812 42.5625 120.812 40.4375V21.5H125.031ZM154.375 34.9062V38.8906H139.094V49.0156H156.391V53H134.875V21.5938H156.391V25.5781H139.094V34.9062H154.375ZM169.516 21.5938V49.0156H186.812V53H165.297V21.5938H169.516ZM17.0312 79.5V109.406C17.0312 112.062 16.5938 114.266 15.7188 116.016C14.8438 117.766 13.6406 119.172 12.1094 120.234C10.6094 121.328 8.875 122.234 6.90625 122.953L4.84375 118.875C10.1562 116.969 12.8125 114.094 12.8125 110.25V79.5H17.0312ZM39.4375 79.5938L54.1094 111H49.0469L45.7656 103.5H31.0469L27.7188 111H22.6562L37.3281 79.5938H39.4375ZM38.4531 86.7188L32.7812 99.5156H44.0312L38.4531 86.7188ZM73.4688 78.8906C75.75 78.8906 77.6094 79.2031 79.0469 79.8281C80.5156 80.4531 81.7969 81.2656 82.8906 82.2656V86.9062C82.2031 86.4062 81.4219 85.8594 80.5469 85.2656C79.7031 84.6719 78.7031 84.1562 77.5469 83.7188C76.4219 83.25 75.0625 83.0156 73.4688 83.0156C71.125 83.0156 69.0312 83.5469 67.1875 84.6094C65.3438 85.6719 63.8906 87.1406 62.8281 89.0156C61.7656 90.8594 61.2344 92.9531 61.2344 95.2969C61.2344 97.6406 61.7656 99.7344 62.8281 101.578C63.8906 103.422 65.3438 104.891 67.1875 105.984C69.0312 107.047 71.125 107.578 73.4688 107.578C75.875 107.578 77.9219 107.188 79.6094 106.406C81.3281 105.594 82.7344 104.766 83.8281 103.922V108.141C82.7344 109.109 81.2969 109.953 79.5156 110.672C77.7656 111.359 75.75 111.703 73.4688 111.703C71.0938 111.703 68.9062 111.281 66.9062 110.438C64.9062 109.562 63.1562 108.375 61.6562 106.875C60.1562 105.375 58.9844 103.641 58.1406 101.672C57.3281 99.6719 56.9219 97.5469 56.9219 95.2969C56.9219 93.0469 57.3281 90.9375 58.1406 88.9688C58.9844 86.9688 60.1562 85.2188 61.6562 83.7188C63.1562 82.2188 64.9062 81.0469 66.9062 80.2031C68.9062 79.3281 71.0938 78.8906 73.4688 78.8906ZM105.062 78.8906C107.438 78.8906 109.625 79.3281 111.625 80.2031C113.625 81.0469 115.375 82.2188 116.875 83.7188C118.375 85.2188 119.531 86.9688 120.344 88.9688C121.188 90.9375 121.609 93.0469 121.609 95.2969C121.609 97.5469 121.188 99.6719 120.344 101.672C119.531 103.641 118.375 105.375 116.875 106.875C115.375 108.375 113.625 109.562 111.625 110.438C109.625 111.281 107.438 111.703 105.062 111.703C102.688 111.703 100.5 111.281 98.5 110.438C96.5 109.562 94.75 108.375 93.25 106.875C91.75 105.375 90.5781 103.641 89.7344 101.672C88.9219 99.6719 88.5156 97.5469 88.5156 95.2969C88.5156 93.0469 88.9219 90.9375 89.7344 88.9688C90.5781 86.9688 91.75 85.2188 93.25 83.7188C94.75 82.2188 96.5 81.0469 98.5 80.2031C100.5 79.3281 102.688 78.8906 105.062 78.8906ZM105.062 83.0156C102.719 83.0156 100.625 83.5469 98.7812 84.6094C96.9375 85.6719 95.4844 87.1406 94.4219 89.0156C93.3594 90.8594 92.8281 92.9531 92.8281 95.2969C92.8281 97.6406 93.3594 99.7344 94.4219 101.578C95.4844 103.422 96.9375 104.891 98.7812 105.984C100.625 107.047 102.719 107.578 105.062 107.578C107.406 107.578 109.5 107.047 111.344 105.984C113.188 104.891 114.641 103.422 115.703 101.578C116.766 99.7344 117.297 97.6406 117.297 95.2969C117.297 92.9531 116.766 90.8594 115.703 89.0156C114.641 87.1406 113.188 85.6719 111.344 84.6094C109.5 83.5469 107.406 83.0156 105.062 83.0156ZM140.172 78.8438C142.484 78.8438 144.484 79.2344 146.172 80.0156C147.891 80.7656 149.219 81.7969 150.156 83.1094C151.094 84.4219 151.562 85.9375 151.562 87.6562C151.562 89.1875 151.125 90.5938 150.25 91.875C149.375 93.125 148.281 94.0625 146.969 94.6875C147.906 94.875 148.828 95.2656 149.734 95.8594C150.641 96.4531 151.391 97.2656 151.984 98.2969C152.609 99.3281 152.922 100.609 152.922 102.141C152.922 103.891 152.422 105.469 151.422 106.875C150.422 108.281 148.984 109.406 147.109 110.25C145.266 111.062 143.078 111.469 140.547 111.469C138.609 111.469 136.578 111.344 134.453 111.094C132.359 110.875 130.578 110.609 129.109 110.297V80.0156C130.734 79.6406 132.5 79.3594 134.406 79.1719C136.344 78.9531 138.266 78.8438 140.172 78.8438ZM139.891 82.8281C138.578 82.8281 137.391 82.875 136.328 82.9688C135.297 83.0625 134.297 83.2031 133.328 83.3906V93.2344H140.688C142.812 93.2344 144.438 92.7031 145.562 91.6406C146.688 90.5469 147.25 89.2812 147.25 87.8438C147.25 86.7188 146.906 85.7969 146.219 85.0781C145.531 84.3281 144.625 83.7656 143.5 83.3906C142.406 83.0156 141.203 82.8281 139.891 82.8281ZM133.328 106.922C134.453 107.141 135.703 107.297 137.078 107.391C138.453 107.453 139.578 107.484 140.453 107.484C142.797 107.484 144.734 107 146.266 106.031C147.828 105.062 148.609 103.766 148.609 102.141C148.609 100.422 147.844 99.1406 146.312 98.2969C144.812 97.4219 142.969 96.9844 140.781 96.9844H133.328V106.922ZM168.812 79.125C170.656 79.125 172.172 79.3906 173.359 79.9219C174.578 80.4531 175.641 81.0156 176.547 81.6094V85.9688C175.672 85.3125 174.609 84.7031 173.359 84.1406C172.109 83.5469 170.75 83.25 169.281 83.25C168.344 83.25 167.359 83.4219 166.328 83.7656C165.328 84.0781 164.484 84.5938 163.797 85.3125C163.109 86.0312 162.766 86.9531 162.766 88.0781C162.766 89.3281 163.219 90.2812 164.125 90.9375C165.031 91.5938 166.125 92.2188 167.406 92.8125L171.719 94.7812C173.875 95.75 175.5 96.8281 176.594 98.0156C177.688 99.2031 178.234 100.781 178.234 102.75C178.234 104.469 177.734 105.984 176.734 107.297C175.734 108.578 174.422 109.594 172.797 110.344C171.172 111.094 169.391 111.469 167.453 111.469C165.641 111.469 163.969 111.156 162.438 110.531C160.906 109.906 159.578 109.203 158.453 108.422V104.062C159.672 104.906 161.062 105.672 162.625 106.359C164.219 107.016 166.016 107.344 168.016 107.344C169.578 107.344 170.953 106.953 172.141 106.172C173.328 105.391 173.922 104.312 173.922 102.938C173.922 102.156 173.672 101.484 173.172 100.922C172.703 100.359 172.125 99.875 171.438 99.4688C170.75 99.0625 170.078 98.7188 169.422 98.4375L164.219 96.0938C161.969 95.0938 160.438 93.9219 159.625 92.5781C158.812 91.2344 158.406 89.6875 158.406 87.9375C158.406 86.2812 158.875 84.7969 159.812 83.4844C160.781 82.1406 162.062 81.0781 163.656 80.2969C165.25 79.5156 166.969 79.125 168.812 79.125Z" fill="white"/>
<defs>
<radialGradient id="paint0_radial_113_215" cx="0" cy="0" r="1" gradientUnits="userSpaceOnUse" gradientTransform="translate(94 66) rotate(90) scale(66)">
<stop stop-color="#DC4D07"/>
<stop offset="1" stop-color="#C4C4C4" stop-opacity="0"/>
</radialGradient>
</defs>
</svg>
