<svg width="38" height="38" viewBox="0 0 38 38" fill="none" xmlns="http://www.w3.org/2000/svg">
<g filter="url(#filter0_d_237_37)">
<path d="M34 15C34 23.2843 27.2843 30 19 30C10.7157 30 4 23.2843 4 15C4 6.71573 10.7157 0 19 0C27.2843 0 34 6.71573 34 15Z" fill="#C4C4C4"/>
<path d="M28.8792 14.1597C26.9962 10.4858 23.2684 8 19 8C14.7316 8 11.0028 10.4875 9.12081 14.1601C9.04138 14.3172 9 14.4908 9 14.6669C9 14.8429 9.04138 15.0165 9.12081 15.1736C11.0038 18.8476 14.7316 21.3334 19 21.3334C23.2684 21.3334 26.9972 18.8459 28.8792 15.1733C28.9586 15.0162 29 14.8426 29 14.6665C29 14.4904 28.9586 14.3169 28.8792 14.1597ZM19 19.6667C18.0111 19.6667 17.0444 19.3734 16.2221 18.824C15.3999 18.2746 14.759 17.4937 14.3806 16.5801C14.0022 15.6665 13.9031 14.6611 14.0961 13.6912C14.289 12.7213 14.7652 11.8304 15.4645 11.1311C16.1637 10.4319 17.0546 9.95567 18.0245 9.76274C18.9945 9.56982 19.9998 9.66883 20.9134 10.0473C21.8271 10.4257 22.6079 11.0666 23.1574 11.8888C23.7068 12.7111 24 13.6778 24 14.6667C24.0003 15.3234 23.8712 15.9737 23.6201 16.5805C23.3689 17.1873 23.0006 17.7386 22.5363 18.2029C22.0719 18.6673 21.5206 19.0356 20.9138 19.2867C20.307 19.5379 19.6567 19.667 19 19.6667ZM19 11.3333C18.7025 11.3375 18.4069 11.3818 18.1212 11.4649C18.3567 11.785 18.4697 12.1788 18.4397 12.575C18.4097 12.9712 18.2388 13.3435 17.9578 13.6245C17.6769 13.9054 17.3045 14.0764 16.9083 14.1064C16.5121 14.1364 16.1183 14.0234 15.7983 13.7879C15.616 14.4592 15.6489 15.1709 15.8923 15.8226C16.1357 16.4743 16.5773 17.0333 17.1551 17.4208C17.7328 17.8084 18.4175 18.005 19.1128 17.9831C19.8082 17.9611 20.4791 17.7216 21.0312 17.2984C21.5833 16.8751 21.9888 16.2894 22.1906 15.6236C22.3923 14.9578 22.3803 14.2456 22.156 13.587C21.9318 12.9285 21.5067 12.3568 20.9405 11.9525C20.3744 11.5483 19.6957 11.3317 19 11.3333Z" fill="#272727"/>
</g>
<defs>
<filter id="filter0_d_237_37" x="0" y="0" width="38" height="38" filterUnits="userSpaceOnUse" color-interpolation-filters="sRGB">
<feFlood flood-opacity="0" result="BackgroundImageFix"/>
<feColorMatrix in="SourceAlpha" type="matrix" values="0 0 0 0 0 0 0 0 0 0 0 0 0 0 0 0 0 0 127 0" result="hardAlpha"/>
<feOffset dy="4"/>
<feGaussianBlur stdDeviation="2"/>
<feComposite in2="hardAlpha" operator="out"/>
<feColorMatrix type="matrix" values="0 0 0 0 0 0 0 0 0 0 0 0 0 0 0 0 0 0 0.25 0"/>
<feBlend mode="normal" in2="BackgroundImageFix" result="effect1_dropShadow_237_37"/>
<feBlend mode="normal" in="SourceGraphic" in2="effect1_dropShadow_237_37" result="shape"/>
</filter>
</defs>
</svg>
