<svg width="40" height="40" viewBox="0 0 40 40" fill="none" xmlns="http://www.w3.org/2000/svg">
<path d="M40 20C40 31.0484 31.0484 40 20 40C8.95161 40 0 31.0484 0 20C0 8.95161 8.95161 0 20 0C31.0484 0 40 8.95161 40 20ZM28.4194 17.6694L22.5806 23.7581V9.03226C22.5806 7.95968 21.7177 7.09677 20.6452 7.09677H19.3548C18.2823 7.09677 17.4194 7.95968 17.4194 9.03226V23.7581L11.5806 17.6694C10.8306 16.8871 9.58064 16.871 8.81452 17.6371L7.93548 18.5242C7.17742 19.2823 7.17742 20.5081 7.93548 21.2581L18.629 31.9597C19.3871 32.7177 20.6129 32.7177 21.3629 31.9597L32.0645 21.2581C32.8226 20.5 32.8226 19.2742 32.0645 18.5242L31.1855 17.6371C30.4194 16.871 29.1694 16.8871 28.4194 17.6694Z" fill="#F06F07"/>
</svg>
