<svg width="34" height="34" viewBox="0 0 34 34" fill="none" xmlns="http://www.w3.org/2000/svg">
<path d="M32.5 17C32.5 25.5604 25.5604 32.5 17 32.5V33.5C26.1127 33.5 33.5 26.1127 33.5 17H32.5ZM17 32.5C8.43959 32.5 1.5 25.5604 1.5 17H0.5C0.5 26.1127 7.8873 33.5 17 33.5V32.5ZM1.5 17C1.5 8.43959 8.43959 1.5 17 1.5V0.5C7.8873 0.5 0.5 7.8873 0.5 17H1.5ZM17 1.5C25.5604 1.5 32.5 8.43959 32.5 17H33.5C33.5 7.8873 26.1127 0.5 17 0.5V1.5ZM10 10L24 24L24.7071 23.2929L10.7071 9.29289L10 10ZM10 24L24 9.99995L23.2929 9.29285L9.29289 23.2928L10 24Z" fill="#F06F07"/>
</svg>