<svg width="38" height="38" viewBox="0 0 38 38" fill="none" xmlns="http://www.w3.org/2000/svg">
<g filter="url(#filter0_d_237_34)">
<path d="M34 15C34 23.2843 27.2843 30 19 30C10.7157 30 4 23.2843 4 15C4 6.71573 10.7157 0 19 0C27.2843 0 34 6.71573 34 15Z" fill="#C4C4C4"/>
<path d="M15.6895 21.104C15.6895 21.1867 15.5968 21.2529 15.4798 21.2529C15.3468 21.2653 15.254 21.1991 15.254 21.104C15.254 21.0213 15.3468 20.9551 15.4637 20.9551C15.5847 20.9427 15.6895 21.0089 15.6895 21.104ZM14.4355 20.9179C14.4073 21.0006 14.4879 21.0957 14.6089 21.1205C14.7137 21.1619 14.8347 21.1205 14.8589 21.0378C14.8831 20.9551 14.8065 20.86 14.6855 20.8228C14.5806 20.7938 14.4637 20.8352 14.4355 20.9179ZM16.2177 20.8476C16.1008 20.8765 16.0202 20.9551 16.0323 21.0502C16.0444 21.1329 16.1492 21.1867 16.2702 21.1577C16.3871 21.1288 16.4677 21.0502 16.4556 20.9675C16.4435 20.8889 16.3347 20.8352 16.2177 20.8476ZM18.871 5C13.2782 5 9 9.35477 9 15.0908C9 19.6772 11.8145 23.6019 15.8347 24.9832C16.3508 25.0783 16.5323 24.7516 16.5323 24.4827C16.5323 24.2263 16.5202 22.812 16.5202 21.9435C16.5202 21.9435 13.6976 22.5638 13.1048 20.7111C13.1048 20.7111 12.6452 19.5076 11.9839 19.1975C11.9839 19.1975 11.0605 18.5482 12.0484 18.5606C12.0484 18.5606 13.0524 18.6433 13.6048 19.6276C14.4879 21.2239 15.9677 20.7649 16.5444 20.4919C16.6371 19.8302 16.8992 19.3712 17.1895 19.0982C14.9355 18.8418 12.6613 18.5068 12.6613 14.5284C12.6613 13.3911 12.9677 12.8204 13.6129 12.0925C13.5081 11.8237 13.1653 10.7154 13.7177 9.28447C14.5605 9.01565 16.5 10.4011 16.5 10.4011C17.3065 10.1695 18.1734 10.0496 19.0323 10.0496C19.8911 10.0496 20.7581 10.1695 21.5645 10.4011C21.5645 10.4011 23.504 9.01152 24.3468 9.28447C24.8992 10.7195 24.5565 11.8237 24.4516 12.0925C25.0968 12.8245 25.4919 13.3952 25.4919 14.5284C25.4919 18.5192 23.1169 18.8377 20.8629 19.0982C21.2339 19.4249 21.5484 20.0453 21.5484 21.0171C21.5484 22.4108 21.5363 24.1354 21.5363 24.4745C21.5363 24.7433 21.7218 25.07 22.2339 24.9749C26.2661 23.6019 29 19.6772 29 15.0908C29 9.35477 24.4637 5 18.871 5ZM12.9194 19.2636C12.8669 19.305 12.879 19.4001 12.9476 19.4787C13.0121 19.5449 13.1048 19.5738 13.1573 19.52C13.2097 19.4787 13.1976 19.3836 13.129 19.305C13.0645 19.2388 12.9718 19.2099 12.9194 19.2636ZM12.4839 18.9287C12.4556 18.9824 12.496 19.0486 12.5766 19.0899C12.6411 19.1313 12.7218 19.1189 12.75 19.061C12.7782 19.0072 12.7379 18.9411 12.6573 18.8997C12.5766 18.8749 12.5121 18.8873 12.4839 18.9287ZM13.7903 20.4009C13.7258 20.4547 13.75 20.5788 13.8427 20.6573C13.9355 20.7524 14.0524 20.7649 14.1048 20.6987C14.1573 20.6449 14.1331 20.5209 14.0524 20.4423C13.9637 20.3472 13.8427 20.3348 13.7903 20.4009ZM13.3306 19.793C13.2661 19.8343 13.2661 19.9419 13.3306 20.037C13.3952 20.1321 13.504 20.1735 13.5565 20.1321C13.621 20.0783 13.621 19.9708 13.5565 19.8757C13.5 19.7806 13.3952 19.7392 13.3306 19.793Z" fill="#272727"/>
</g>
<defs>
<filter id="filter0_d_237_34" x="0" y="0" width="38" height="38" filterUnits="userSpaceOnUse" color-interpolation-filters="sRGB">
<feFlood flood-opacity="0" result="BackgroundImageFix"/>
<feColorMatrix in="SourceAlpha" type="matrix" values="0 0 0 0 0 0 0 0 0 0 0 0 0 0 0 0 0 0 127 0" result="hardAlpha"/>
<feOffset dy="4"/>
<feGaussianBlur stdDeviation="2"/>
<feComposite in2="hardAlpha" operator="out"/>
<feColorMatrix type="matrix" values="0 0 0 0 0 0 0 0 0 0 0 0 0 0 0 0 0 0 0.25 0"/>
<feBlend mode="normal" in2="BackgroundImageFix" result="effect1_dropShadow_237_34"/>
<feBlend mode="normal" in="SourceGraphic" in2="effect1_dropShadow_237_34" result="shape"/>
</filter>
</defs>
</svg>
