<svg width="12" height="21" viewBox="0 0 12 21" fill="none" xmlns="http://www.w3.org/2000/svg">
<path fill-rule="evenodd" clip-rule="evenodd" d="M6 21C6.17679 21 6.34633 20.921 6.47134 20.7803C6.59635 20.6397 6.66657 20.4489 6.66657 20.25V2.56168L10.8607 7.28188C10.9858 7.4227 11.1556 7.50181 11.3326 7.50181C11.5096 7.50181 11.6794 7.4227 11.8045 7.28188C11.9297 7.14105 12 6.95006 12 6.75091C12 6.55176 11.9297 6.36076 11.8045 6.21994L6.47193 0.220327C6.41002 0.150486 6.33646 0.0950755 6.25548 0.0572682C6.17449 0.019461 6.08768 0 6 0C5.91232 0 5.82551 0.019461 5.74452 0.0572682C5.66354 0.0950755 5.58998 0.150486 5.52807 0.220327L0.195481 6.21994C0.133506 6.28967 0.0843448 6.37245 0.050804 6.46355C0.0172633 6.55466 0 6.6523 0 6.75091C0 6.95006 0.0703166 7.14105 0.195481 7.28188C0.320646 7.4227 0.490406 7.50181 0.667415 7.50181C0.844425 7.50181 1.01418 7.4227 1.13935 7.28188L5.33343 2.56168V20.25C5.33343 20.4489 5.40366 20.6397 5.52866 20.7803C5.65367 20.921 5.82321 21 6 21Z" fill="#C4C4C4"/>
</svg>